<svg width="38" height="40" viewBox="0 0 38 40" fill="none" xmlns="http://www.w3.org/2000/svg">
<g filter="url(#filter0_d)">
<rect x="6" y="7" width="26" height="24" rx="3" stroke="black" stroke-width="2"/>
<path d="M15 9.5V4.5" stroke="black" stroke-width="2" stroke-linecap="round"/>
<path d="M23 9.5V4.5" stroke="black" stroke-width="2" stroke-linecap="round"/>
<path d="M12.3433 24C12.2566 24 12.183 23.9697 12.1223 23.909C12.0616 23.8483 12.0313 23.7747 12.0313 23.688V23.025C12.0313 22.791 12.1396 22.5873 12.3563 22.414L14.4103 20.373C15.303 19.671 15.9226 19.125 16.2693 18.735C16.6246 18.3363 16.8023 17.9463 16.8023 17.565C16.8023 17.1577 16.6896 16.837 16.4643 16.603C16.2476 16.369 15.9183 16.252 15.4763 16.252C15.043 16.252 14.7006 16.382 14.4493 16.642C14.198 16.8933 14.042 17.2227 13.9813 17.63C13.9553 17.734 13.9076 17.812 13.8383 17.864C13.769 17.9073 13.691 17.929 13.6043 17.929H12.4473C12.3693 17.929 12.3043 17.903 12.2523 17.851C12.2003 17.799 12.1743 17.7383 12.1743 17.669C12.1916 17.1577 12.3303 16.681 12.5903 16.239C12.8503 15.7883 13.2273 15.4287 13.7213 15.16C14.2153 14.8827 14.796 14.744 15.4633 14.744C16.1566 14.744 16.7416 14.8653 17.2183 15.108C17.7036 15.342 18.0676 15.667 18.3103 16.083C18.553 16.499 18.6743 16.9713 18.6743 17.5C18.6743 18.0807 18.5096 18.605 18.1803 19.073C17.8596 19.541 17.3656 20.0437 16.6983 20.581L14.8523 22.453H18.5573C18.6526 22.453 18.7263 22.4833 18.7783 22.544C18.839 22.596 18.8693 22.6697 18.8693 22.765V23.688C18.8693 23.7747 18.839 23.8483 18.7783 23.909C18.7263 23.9697 18.6526 24 18.5573 24H12.3433ZM21.3801 24C21.3021 24 21.2371 23.974 21.1851 23.922C21.1331 23.8613 21.1071 23.792 21.1071 23.714C21.1071 23.688 21.1158 23.649 21.1331 23.597L24.2661 16.447H20.1841C20.0975 16.447 20.0238 16.4167 19.9631 16.356C19.9025 16.2953 19.8721 16.2217 19.8721 16.135V15.225C19.8721 15.1297 19.8981 15.0517 19.9501 14.991C20.0108 14.9303 20.0888 14.9 20.1841 14.9H25.8911C25.9865 14.9 26.0601 14.9303 26.1121 14.991C26.1728 15.0517 26.2031 15.1297 26.2031 15.225V16.031C26.2031 16.2043 26.1641 16.3907 26.0861 16.59L22.9791 23.688C22.8838 23.896 22.7451 24 22.5631 24H21.3801Z" fill="black"/>
</g>
<defs>
<filter id="filter0_d" x="-4" y="0" width="46" height="46" filterUnits="userSpaceOnUse" color-interpolation-filters="sRGB">
<feFlood flood-opacity="0" result="BackgroundImageFix"/>
<feColorMatrix in="SourceAlpha" type="matrix" values="0 0 0 0 0 0 0 0 0 0 0 0 0 0 0 0 0 0 127 0"/>
<feOffset dy="4"/>
<feGaussianBlur stdDeviation="2"/>
<feColorMatrix type="matrix" values="0 0 0 0 0 0 0 0 0 0 0 0 0 0 0 0 0 0 0.25 0"/>
<feBlend mode="normal" in2="BackgroundImageFix" result="effect1_dropShadow"/>
<feBlend mode="normal" in="SourceGraphic" in2="effect1_dropShadow" result="shape"/>
</filter>
</defs>
</svg>
