<svg width="26" height="26" viewBox="0 0 26 26" fill="none" xmlns="http://www.w3.org/2000/svg">
<path d="M17.9883 6.09053L1.37431 12.036C1.18541 12.1036 1.02061 12.2253 0.900349 12.3858C0.780091 12.5463 0.709674 12.7387 0.69784 12.939C0.686005 13.1394 0.733274 13.3389 0.833779 13.5128C0.934284 13.6867 1.0836 13.8273 1.26319 13.9172L6.97635 16.7768C7.99319 17.2858 8.81799 18.1106 9.32696 19.1274L12.117 24.7015C12.2086 24.8845 12.3529 25.036 12.5313 25.1365C12.7097 25.237 12.9139 25.2818 13.1178 25.2652C13.3217 25.2486 13.5159 25.1714 13.6754 25.0434C13.8348 24.9154 13.9522 24.7426 14.0125 24.5472L19.3141 7.35875C19.3701 7.17693 19.3744 6.98301 19.3265 6.79873C19.2785 6.61444 19.1802 6.44708 19.0426 6.31541C18.9049 6.18373 18.7334 6.09295 18.5472 6.05323C18.361 6.01351 18.1674 6.02642 17.9883 6.09053Z" fill="#D24A43"/>
</svg>
